<svg width="16" height="12" viewBox="0 0 16 12" fill="none" xmlns="http://www.w3.org/2000/svg">
<path fill-rule="evenodd" clip-rule="evenodd" d="M6 1.5C6 1.10218 6.15804 0.720644 6.43934 0.43934C6.72064 0.158035 7.10218 0 7.5 0H8.5C8.89782 0 9.27936 0.158035 9.56066 0.43934C9.84196 0.720644 10 1.10218 10 1.5V2.5C10 2.89782 9.84196 3.27936 9.56066 3.56066C9.27936 3.84196 8.89782 4 8.5 4V5H14C14.1326 5 14.2598 5.05268 14.3536 5.14645C14.4473 5.24021 14.5 5.36739 14.5 5.5V6.5C14.5 6.63261 14.4473 6.75979 14.3536 6.85355C14.2598 6.94732 14.1326 7 14 7C13.8674 7 13.7402 6.94732 13.6464 6.85355C13.5527 6.75979 13.5 6.63261 13.5 6.5V6H8.5V6.5C8.5 6.63261 8.44732 6.75979 8.35355 6.85355C8.25979 6.94732 8.13261 7 8 7C7.86739 7 7.74021 6.94732 7.64645 6.85355C7.55268 6.75979 7.5 6.63261 7.5 6.5V6H2.5V6.5C2.5 6.63261 2.44732 6.75979 2.35355 6.85355C2.25979 6.94732 2.13261 7 2 7C1.86739 7 1.74021 6.94732 1.64645 6.85355C1.55268 6.75979 1.5 6.63261 1.5 6.5V5.5C1.5 5.36739 1.55268 5.24021 1.64645 5.14645C1.74021 5.05268 1.86739 5 2 5H7.5V4C7.10218 4 6.72064 3.84196 6.43934 3.56066C6.15804 3.27936 6 2.89782 6 2.5V1.5ZM8.5 3C8.63261 3 8.75979 2.94732 8.85355 2.85355C8.94732 2.75979 9 2.63261 9 2.5V1.5C9 1.36739 8.94732 1.24021 8.85355 1.14645C8.75979 1.05268 8.63261 1 8.5 1H7.5C7.36739 1 7.24021 1.05268 7.14645 1.14645C7.05268 1.24021 7 1.36739 7 1.5V2.5C7 2.63261 7.05268 2.75979 7.14645 2.85355C7.24021 2.94732 7.36739 3 7.5 3H8.5ZM0 9.5C0 9.10218 0.158035 8.72064 0.43934 8.43934C0.720644 8.15804 1.10218 8 1.5 8H2.5C2.89782 8 3.27936 8.15804 3.56066 8.43934C3.84196 8.72064 4 9.10218 4 9.5V10.5C4 10.8978 3.84196 11.2794 3.56066 11.5607C3.27936 11.842 2.89782 12 2.5 12H1.5C1.10218 12 0.720644 11.842 0.43934 11.5607C0.158035 11.2794 0 10.8978 0 10.5V9.5ZM1.5 9C1.36739 9 1.24021 9.05268 1.14645 9.14645C1.05268 9.24021 1 9.36739 1 9.5V10.5C1 10.6326 1.05268 10.7598 1.14645 10.8536C1.24021 10.9473 1.36739 11 1.5 11H2.5C2.63261 11 2.75979 10.9473 2.85355 10.8536C2.94732 10.7598 3 10.6326 3 10.5V9.5C3 9.36739 2.94732 9.24021 2.85355 9.14645C2.75979 9.05268 2.63261 9 2.5 9H1.5ZM6 9.5C6 9.10218 6.15804 8.72064 6.43934 8.43934C6.72064 8.15804 7.10218 8 7.5 8H8.5C8.89782 8 9.27936 8.15804 9.56066 8.43934C9.84196 8.72064 10 9.10218 10 9.5V10.5C10 10.8978 9.84196 11.2794 9.56066 11.5607C9.27936 11.842 8.89782 12 8.5 12H7.5C7.10218 12 6.72064 11.842 6.43934 11.5607C6.15804 11.2794 6 10.8978 6 10.5V9.5ZM7.5 9C7.36739 9 7.24021 9.05268 7.14645 9.14645C7.05268 9.24021 7 9.36739 7 9.5V10.5C7 10.6326 7.05268 10.7598 7.14645 10.8536C7.24021 10.9473 7.36739 11 7.5 11H8.5C8.63261 11 8.75979 10.9473 8.85355 10.8536C8.94732 10.7598 9 10.6326 9 10.5V9.5C9 9.36739 8.94732 9.24021 8.85355 9.14645C8.75979 9.05268 8.63261 9 8.5 9H7.5ZM12 9.5C12 9.10218 12.158 8.72064 12.4393 8.43934C12.7206 8.15804 13.1022 8 13.5 8H14.5C14.8978 8 15.2794 8.15804 15.5607 8.43934C15.842 8.72064 16 9.10218 16 9.5V10.5C16 10.8978 15.842 11.2794 15.5607 11.5607C15.2794 11.842 14.8978 12 14.5 12H13.5C13.1022 12 12.7206 11.842 12.4393 11.5607C12.158 11.2794 12 10.8978 12 10.5V9.5ZM13.5 9C13.3674 9 13.2402 9.05268 13.1464 9.14645C13.0527 9.24021 13 9.36739 13 9.5V10.5C13 10.6326 13.0527 10.7598 13.1464 10.8536C13.2402 10.9473 13.3674 11 13.5 11H14.5C14.6326 11 14.7598 10.9473 14.8536 10.8536C14.9473 10.7598 15 10.6326 15 10.5V9.5C15 9.36739 14.9473 9.24021 14.8536 9.14645C14.7598 9.05268 14.6326 9 14.5 9H13.5Z" fill="#4C6A80"/>
</svg>
